<svg width="88" height="86" viewBox="0 0 88 86" fill="none" xmlns="http://www.w3.org/2000/svg"><g clip-path="url(#clip0_1_2)"><path fill-rule="evenodd" clip-rule="evenodd" d="M31.5362 12.4787L0.0596708 43.9552L31.5362 75.4318L44.0149 62.9531L56.4936 75.4318L68.9126 63.0127L87.9701 43.9552L68.9425 24.9275L68.9126 24.9574L56.4638 12.5085L44.0149 24.9574L31.5362 12.4787ZM41.4688 60.4069L38.2288 57.167L31.5362 63.8596L11.6318 43.9552L31.5362 24.0508L51.4406 43.9552L46.5611 48.8348L49.801 52.0747L57.9205 43.9552L31.5362 17.571L18.3441 30.7631L5.15196 43.9552L31.5362 70.3395L41.4688 60.4069ZM52.3471 54.6208L56.4936 58.7673L68.9126 46.3483L71.3057 43.9552L68.9126 41.5622L56.4936 29.1431L52.3471 33.2896L63.0127 43.9552L52.3471 54.6208ZM41.4688 39.0757L38.2288 35.8357L30.1094 43.9552L56.4936 70.3395L68.9126 57.9204L82.8778 43.9552L68.9126 29.99L56.4936 17.571L46.561 27.5035L49.801 30.7435L56.4936 24.0509L68.9126 36.4699L76.398 43.9552L68.9126 51.4406L56.4936 63.8596L36.5892 43.9552L41.4688 39.0757ZM35.6827 33.2896L31.5362 29.1431L16.7241 43.9552L31.5362 58.7673L35.6827 54.6208L25.0171 43.9552L35.6827 33.2896ZM44.0149 41.6218L41.6815 43.9552L44.0149 46.2886L46.3483 43.9552L44.0149 41.6218Z" fill="#CC2C49"/></g><defs><clipPath id="clip0_1_2"><rect width="88" height="86" fill="white"/></clipPath></defs></svg>
