<svg width="315" height="116" viewBox="0 0 315 116" fill="none" xmlns="http://www.w3.org/2000/svg">
<rect width="315" height="116" rx="10" fill="#D6838B"/>
<rect width="116" height="116" rx="10" fill="#CC2C49"/>
<path d="M50.8506 67.6944C50.4468 66.694 49.5814 66.4541 48.9958 66.3967V60.3C48.9958 58.0389 47.2029 56.2 44.9983 56.2H33.006V53.3505C33.6156 52.7888 34.0053 51.9811 34.0053 51.075C34.0053 50.2595 33.6895 49.4773 33.1272 48.9006C32.565 48.324 31.8024 48 31.0072 48C30.2121 48 29.4495 48.324 28.8873 48.9006C28.325 49.4773 28.0092 50.2595 28.0092 51.075C28.0092 51.9811 28.3989 52.7888 29.0085 53.3505V56.2H17.0162C14.8116 56.2 13.0187 58.0389 13.0187 60.3V66.4438L12.8548 66.4562C12.3511 66.4934 11.8798 66.7249 11.5357 67.1041C11.1916 67.4833 11.0002 67.982 11 68.5V72.6C11 73.1437 11.2106 73.6651 11.5854 74.0496C11.9602 74.434 12.4686 74.65 12.9987 74.65H13.0187V84.9C13.0187 87.1612 14.8116 89 17.0162 89H44.9983C47.2029 89 48.9958 87.1612 48.9958 84.9V74.65C49.5259 74.65 50.0342 74.434 50.4091 74.0496C50.7839 73.6651 50.9945 73.1437 50.9945 72.6V68.6271C51.0175 68.309 50.9682 67.9897 50.8506 67.6944ZM17.0162 84.9V60.3H44.9983L45.0003 68.4918L44.9983 68.5V72.6L45.0003 72.6103L45.0023 84.9H17.0162Z" fill="#D6838B"/>
<path d="M24.0117 72.6C25.6675 72.6 27.0098 70.7644 27.0098 68.5C27.0098 66.2356 25.6675 64.4 24.0117 64.4C22.3559 64.4 21.0136 66.2356 21.0136 68.5C21.0136 70.7644 22.3559 72.6 24.0117 72.6Z" fill="#D6838B"/>
<path d="M38.0028 72.6C39.6586 72.6 41.0009 70.7644 41.0009 68.5C41.0009 66.2356 39.6586 64.4 38.0028 64.4C36.347 64.4 35.0047 66.2356 35.0047 68.5C35.0047 70.7644 36.347 72.6 38.0028 72.6Z" fill="#D6838B"/>
<path d="M23.0123 76.7H39.0021V80.8H23.0123V76.7Z" fill="#D6838B"/>
<path fill-rule="evenodd" clip-rule="evenodd" d="M17.0162 84.9V60.3H44.9983L45.0003 68.4918L44.9983 68.5V72.6L45.0003 72.6103L45.0023 84.9H17.0162ZM24.0117 72.6C25.6675 72.6 27.0098 70.7644 27.0098 68.5C27.0098 66.2356 25.6675 64.4 24.0117 64.4C22.3559 64.4 21.0136 66.2356 21.0136 68.5C21.0136 70.7644 22.3559 72.6 24.0117 72.6ZM38.0028 72.6C39.6586 72.6 41.0009 70.7644 41.0009 68.5C41.0009 66.2356 39.6586 64.4 38.0028 64.4C36.347 64.4 35.0047 66.2356 35.0047 68.5C35.0047 70.7644 36.347 72.6 38.0028 72.6ZM39.0021 76.7H23.0123V80.8H39.0021V76.7Z" fill="#CC2C49"/>
<path d="M105.851 75.214C105.447 74.238 104.581 74.004 103.996 73.948V68C103.996 65.794 102.203 64 99.9983 64H88.006V61.22C88.6156 60.672 89.0053 59.884 89.0053 59C89.0053 58.2044 88.6895 57.4413 88.1272 56.8787C87.565 56.3161 86.8024 56 86.0072 56C85.2121 56 84.4495 56.3161 83.8873 56.8787C83.325 57.4413 83.0091 58.2044 83.0091 59C83.0091 59.884 83.3989 60.672 84.0085 61.22V64H72.0162C69.8116 64 68.0187 65.794 68.0187 68V73.994L67.8548 74.006C67.3511 74.0424 66.8798 74.2682 66.5357 74.6382C66.1916 75.0081 66.0002 75.4946 66 76V80C66 80.5304 66.2106 81.0391 66.5854 81.4142C66.9602 81.7893 67.4686 82 67.9987 82H68.0187V92C68.0187 94.206 69.8116 96 72.0162 96H99.9983C102.203 96 103.996 94.206 103.996 92V82C104.526 82 105.034 81.7893 105.409 81.4142C105.784 81.0391 105.994 80.5304 105.994 80V76.124C106.018 75.8136 105.968 75.5021 105.851 75.214ZM72.0162 92V68H99.9983L100 75.992L99.9983 76V80L100 80.01L100.002 92H72.0162Z" fill="#D6838B"/>
<path d="M79.0117 80C80.6675 80 82.0098 78.2091 82.0098 76C82.0098 73.7909 80.6675 72 79.0117 72C77.3559 72 76.0136 73.7909 76.0136 76C76.0136 78.2091 77.3559 80 79.0117 80Z" fill="#D6838B"/>
<path d="M93.0028 80C94.6586 80 96.0009 78.2091 96.0009 76C96.0009 73.7909 94.6586 72 93.0028 72C91.347 72 90.0047 73.7909 90.0047 76C90.0047 78.2091 91.347 80 93.0028 80Z" fill="#D6838B"/>
<path d="M78.0123 84H94.0021V88H78.0123V84Z" fill="#D6838B"/>
<path fill-rule="evenodd" clip-rule="evenodd" d="M72.0162 92V68H99.9983L100 75.992L99.9983 76V80L100 80.01L100.002 92H72.0162ZM79.0117 80C80.6675 80 82.0098 78.2091 82.0098 76C82.0098 73.7909 80.6675 72 79.0117 72C77.3559 72 76.0136 73.7909 76.0136 76C76.0136 78.2091 77.3559 80 79.0117 80ZM93.0028 80C94.6586 80 96.0009 78.2091 96.0009 76C96.0009 73.7909 94.6586 72 93.0028 72C91.347 72 90.0047 73.7909 90.0047 76C90.0047 78.2091 91.347 80 93.0028 80ZM94.0021 84H78.0123V88H94.0021V84Z" fill="#CC2C49"/>
<path d="M66.45 45.2C68.1867 45.2 69.6 43.7867 69.6 42.05V23.15C69.6 21.4133 68.1867 20 66.45 20H39.15C37.4133 20 36 21.4133 36 23.15V53.6L47.1993 45.2H66.45ZM45.8007 41L40.2 45.2V24.2H65.4V41H45.8007Z" fill="#D6838B"/>
<path d="M74.85 32.6H73.8V45.2021C73.8 47.5121 71.9247 49.3874 69.621 49.4H48.6V50.45C48.6 52.1867 50.0133 53.6 51.75 53.6H66.8007L78 62V35.75C78 34.0133 76.5867 32.6 74.85 32.6Z" fill="#D6838B"/>
<path d="M145.336 62.36C146.061 63.6187 147.448 64.248 149.496 64.248C151.544 64.248 152.92 63.6293 153.624 62.392C154.349 61.1547 154.712 59.0853 154.712 56.184C154.712 53.2613 154.339 51.1387 153.592 49.816C152.867 48.4933 151.501 47.832 149.496 47.832C147.491 47.832 146.115 48.4933 145.368 49.816C144.621 51.1387 144.248 53.2507 144.248 56.152C144.248 59.032 144.611 61.1013 145.336 62.36ZM156.408 64.664C155.107 66.456 152.803 67.352 149.496 67.352C146.189 67.352 143.875 66.456 142.552 64.664C141.229 62.8507 140.568 60.0133 140.568 56.152C140.568 52.2907 141.229 49.4213 142.552 47.544C143.896 45.6667 146.211 44.728 149.496 44.728C152.781 44.728 155.085 45.6667 156.408 47.544C157.731 49.4 158.392 52.2693 158.392 56.152C158.392 60.0347 157.731 62.872 156.408 64.664ZM166.304 53.976V67H162.848V53.976H160.992V51H162.848V49.976C162.848 47.6933 163.179 46.1253 163.84 45.272C164.501 44.4187 165.675 43.992 167.36 43.992L170.816 44.312L170.784 47.16C169.739 47.1173 168.864 47.096 168.16 47.096C167.477 47.096 166.997 47.3093 166.72 47.736C166.443 48.1413 166.304 48.8987 166.304 50.008V51H170.528V53.976H166.304ZM177.367 53.976V67H173.911V53.976H172.055V51H173.911V49.976C173.911 47.6933 174.241 46.1253 174.903 45.272C175.564 44.4187 176.737 43.992 178.423 43.992L181.879 44.312L181.847 47.16C180.801 47.1173 179.927 47.096 179.223 47.096C178.54 47.096 178.06 47.3093 177.783 47.736C177.505 48.1413 177.367 48.8987 177.367 50.008V51H181.591V53.976H177.367ZM184.429 67V44.344H187.917V67H184.429ZM192.331 67V51H195.819V67H192.331ZM192.331 48.28V44.6H195.819V48.28H192.331ZM203.538 67H200.049V51H203.506V51.992C205.063 51.096 206.535 50.648 207.922 50.648C210.055 50.648 211.506 51.256 212.274 52.472C213.063 53.6667 213.458 55.6507 213.458 58.424V67H210.002V58.52C210.002 56.792 209.81 55.5653 209.426 54.84C209.063 54.1147 208.306 53.752 207.154 53.752C206.066 53.752 205.02 53.9653 204.018 54.392L203.538 54.584V67ZM228.91 64.12L229.806 64.024L229.87 66.616C227.438 67.1067 225.284 67.352 223.406 67.352C221.038 67.352 219.332 66.7013 218.286 65.4C217.262 64.0987 216.75 62.0187 216.75 59.16C216.75 53.4853 219.065 50.648 223.694 50.648C228.174 50.648 230.414 53.0907 230.414 57.976L230.19 60.472H220.27C220.292 61.7947 220.58 62.7653 221.134 63.384C221.689 64.0027 222.724 64.312 224.238 64.312C225.753 64.312 227.31 64.248 228.91 64.12ZM226.99 57.784C226.99 56.2053 226.734 55.1067 226.222 54.488C225.732 53.848 224.889 53.528 223.694 53.528C222.5 53.528 221.625 53.8587 221.07 54.52C220.537 55.1813 220.26 56.2693 220.238 57.784H226.99Z" fill="#CC2C49"/>
</svg>
