<svg width="315" height="116" viewBox="0 0 315 116" fill="none" xmlns="http://www.w3.org/2000/svg">
<rect width="315" height="116" rx="10" fill="#D6838B"/>
<rect width="116" height="116" rx="10" fill="#CC2C49"/>
<path d="M52.8431 62.1747C52.4192 61.1499 51.5105 60.9042 50.8955 60.8454V54.6C50.8955 52.2837 49.0131 50.4 46.6982 50.4H34.1063V47.481C34.7464 46.9056 35.1556 46.0782 35.1556 45.15C35.1556 44.3146 34.8239 43.5134 34.2336 42.9226C33.6432 42.3319 32.8425 42 32.0076 42C31.1727 42 30.372 42.3319 29.7816 42.9226C29.1913 43.5134 28.8596 44.3146 28.8596 45.15C28.8596 46.0782 29.2688 46.9056 29.9089 47.481V50.4H17.317C15.0021 50.4 13.1196 52.2837 13.1196 54.6V60.8937L12.9476 60.9063C12.4186 60.9445 11.9238 61.1817 11.5625 61.5701C11.2012 61.9585 11.0002 62.4694 11 63V67.2C11 67.757 11.2211 68.2911 11.6147 68.6849C12.0083 69.0787 12.5421 69.3 13.0987 69.3H13.1196V79.8C13.1196 82.1163 15.0021 84 17.317 84H46.6982C49.0131 84 50.8955 82.1163 50.8955 79.8V69.3C51.4521 69.3 51.986 69.0787 52.3795 68.6849C52.7731 68.2911 52.9942 67.757 52.9942 67.2V63.1302C53.0184 62.8043 52.9667 62.4772 52.8431 62.1747ZM17.317 79.8V54.6H46.6982L46.7003 62.9916L46.6982 63V67.2L46.7003 67.2105L46.7024 79.8H17.317Z" fill="#D6838B"/>
<path d="M24.6623 67.2C26.4009 67.2 27.8103 65.3196 27.8103 63C27.8103 60.6804 26.4009 58.8 24.6623 58.8C22.9237 58.8 21.5143 60.6804 21.5143 63C21.5143 65.3196 22.9237 67.2 24.6623 67.2Z" fill="#D6838B"/>
<path d="M39.3529 67.2C41.0915 67.2 42.5009 65.3196 42.5009 63C42.5009 60.6804 41.0915 58.8 39.3529 58.8C37.6143 58.8 36.2049 60.6804 36.2049 63C36.2049 65.3196 37.6143 67.2 39.3529 67.2Z" fill="#D6838B"/>
<path d="M23.613 71.4H40.4022V75.6H23.613V71.4Z" fill="#D6838B"/>
<path fill-rule="evenodd" clip-rule="evenodd" d="M17.317 79.8V54.6H46.6982L46.7003 62.9916L46.6982 63V67.2L46.7003 67.2105L46.7024 79.8H17.317ZM24.6623 67.2C26.4009 67.2 27.8103 65.3196 27.8103 63C27.8103 60.6804 26.4009 58.8 24.6623 58.8C22.9237 58.8 21.5143 60.6804 21.5143 63C21.5143 65.3196 22.9237 67.2 24.6623 67.2ZM39.3529 67.2C41.0915 67.2 42.5009 65.3196 42.5009 63C42.5009 60.6804 41.0915 58.8 39.3529 58.8C37.6143 58.8 36.2049 60.6804 36.2049 63C36.2049 65.3196 37.6143 67.2 39.3529 67.2ZM40.4022 71.4H23.613V75.6H40.4022V71.4Z" fill="#CC2C49"/>
<path d="M104.843 62.1747C104.419 61.1499 103.51 60.9042 102.896 60.8454V54.6C102.896 52.2837 101.013 50.4 98.6982 50.4H86.1063V47.481C86.7464 46.9056 87.1556 46.0782 87.1556 45.15C87.1556 44.3146 86.8239 43.5134 86.2336 42.9226C85.6432 42.3319 84.8425 42 84.0076 42C83.1727 42 82.372 42.3319 81.7816 42.9226C81.1913 43.5134 80.8596 44.3146 80.8596 45.15C80.8596 46.0782 81.2688 46.9056 81.9089 47.481V50.4H69.317C67.0021 50.4 65.1196 52.2837 65.1196 54.6V60.8937L64.9476 60.9063C64.4186 60.9445 63.9238 61.1817 63.5625 61.5701C63.2012 61.9585 63.0002 62.4694 63 63V67.2C63 67.757 63.2211 68.2911 63.6147 68.6849C64.0083 69.0787 64.5421 69.3 65.0987 69.3H65.1196V79.8C65.1196 82.1163 67.0021 84 69.317 84H98.6982C101.013 84 102.896 82.1163 102.896 79.8V69.3C103.452 69.3 103.986 69.0787 104.38 68.6849C104.773 68.2911 104.994 67.757 104.994 67.2V63.1302C105.018 62.8043 104.967 62.4772 104.843 62.1747ZM69.317 79.8V54.6H98.6982L98.7003 62.9916L98.6982 63V67.2L98.7003 67.2105L98.7024 79.8H69.317Z" fill="#D6838B"/>
<path d="M76.6623 67.2C78.4009 67.2 79.8103 65.3196 79.8103 63C79.8103 60.6804 78.4009 58.8 76.6623 58.8C74.9237 58.8 73.5143 60.6804 73.5143 63C73.5143 65.3196 74.9237 67.2 76.6623 67.2Z" fill="#D6838B"/>
<path d="M91.3529 67.2C93.0915 67.2 94.5009 65.3196 94.5009 63C94.5009 60.6804 93.0915 58.8 91.3529 58.8C89.6143 58.8 88.2049 60.6804 88.2049 63C88.2049 65.3196 89.6143 67.2 91.3529 67.2Z" fill="#D6838B"/>
<path d="M75.613 71.4H92.4022V75.6H75.613V71.4Z" fill="#D6838B"/>
<path fill-rule="evenodd" clip-rule="evenodd" d="M69.317 79.8V54.6H98.6982L98.7003 62.9916L98.6982 63V67.2L98.7003 67.2105L98.7024 79.8H69.317ZM76.6623 67.2C78.4009 67.2 79.8103 65.3196 79.8103 63C79.8103 60.6804 78.4009 58.8 76.6623 58.8C74.9237 58.8 73.5143 60.6804 73.5143 63C73.5143 65.3196 74.9237 67.2 76.6623 67.2ZM91.3529 67.2C93.0915 67.2 94.5009 65.3196 94.5009 63C94.5009 60.6804 93.0915 58.8 91.3529 58.8C89.6143 58.8 88.2049 60.6804 88.2049 63C88.2049 65.3196 89.6143 67.2 91.3529 67.2ZM92.4022 71.4H75.613V75.6H92.4022V71.4Z" fill="#CC2C49"/>
<path d="M58 29C46.4206 29 37 38.4206 37 50C37 61.5794 46.4206 71 58 71C69.5794 71 79 61.5794 79 50C79 38.4206 69.5794 29 58 29ZM58 66.8C48.7369 66.8 41.2 59.2631 41.2 50C41.2 47.5472 41.7418 45.2225 42.6889 43.1204C43.0123 43.3094 43.3357 43.5026 43.6465 43.7L43.659 43.7079C44.4864 44.2303 45.3128 44.752 46.3471 45.1448C47.3845 45.5375 48.6319 45.8 50.293 45.8C51.9562 45.8 53.2036 45.5375 54.2431 45.1427C55.2826 44.7479 56.1142 44.225 56.9458 43.7C57.7774 43.175 58.609 42.65 59.6485 42.2552C60.6859 41.8625 61.9333 41.6 63.5965 41.6C65.2597 41.6 66.5071 41.8625 67.5445 42.2573C68.584 42.65 69.4156 43.175 70.2472 43.7C71.0788 44.225 71.9104 44.75 72.9499 45.1448C73.3237 45.2855 73.7353 45.401 74.17 45.5039C74.5711 46.9361 74.8 48.4397 74.8 50C74.8 59.2631 67.2631 66.8 58 66.8Z" fill="#D6838B"/>
<path d="M50.65 54.2C52.3897 54.2 53.8 52.7897 53.8 51.05C53.8 49.3103 52.3897 47.9 50.65 47.9C48.9103 47.9 47.5 49.3103 47.5 51.05C47.5 52.7897 48.9103 54.2 50.65 54.2Z" fill="#D6838B"/>
<path d="M65.35 54.2C67.0897 54.2 68.5 52.7897 68.5 51.05C68.5 49.3103 67.0897 47.9 65.35 47.9C63.6103 47.9 62.2 49.3103 62.2 51.05C62.2 52.7897 63.6103 54.2 65.35 54.2Z" fill="#D6838B"/>
<path fill-rule="evenodd" clip-rule="evenodd" d="M58 66.8C48.7369 66.8 41.2 59.2631 41.2 50C41.2 47.5472 41.7418 45.2225 42.6889 43.1204C43.0123 43.3094 43.3357 43.5026 43.6465 43.7L43.659 43.7079C44.4864 44.2303 45.3128 44.752 46.3471 45.1448C47.3845 45.5375 48.6319 45.8 50.293 45.8C51.9562 45.8 53.2036 45.5375 54.2431 45.1427C55.2826 44.7479 56.1142 44.225 56.9458 43.7C57.7774 43.175 58.609 42.65 59.6485 42.2552C60.6859 41.8625 61.9333 41.6 63.5965 41.6C65.2597 41.6 66.5071 41.8625 67.5445 42.2573C68.584 42.65 69.4156 43.175 70.2472 43.7C71.0788 44.225 71.9104 44.75 72.9499 45.1448C73.3237 45.2855 73.7353 45.401 74.17 45.5039C74.5711 46.9361 74.8 48.4397 74.8 50C74.8 59.2631 67.2631 66.8 58 66.8ZM50.65 54.2C52.3897 54.2 53.8 52.7897 53.8 51.05C53.8 49.3103 52.3897 47.9 50.65 47.9C48.9103 47.9 47.5 49.3103 47.5 51.05C47.5 52.7897 48.9103 54.2 50.65 54.2ZM65.35 54.2C67.0897 54.2 68.5 52.7897 68.5 51.05C68.5 49.3103 67.0897 47.9 65.35 47.9C63.6103 47.9 62.2 49.3103 62.2 51.05C62.2 52.7897 63.6103 54.2 65.35 54.2Z" fill="#CC2C49"/>
<path d="M145.336 64.36C146.061 65.6187 147.448 66.248 149.496 66.248C151.544 66.248 152.92 65.6293 153.624 64.392C154.349 63.1547 154.712 61.0853 154.712 58.184C154.712 55.2613 154.339 53.1387 153.592 51.816C152.867 50.4933 151.501 49.832 149.496 49.832C147.491 49.832 146.115 50.4933 145.368 51.816C144.621 53.1387 144.248 55.2507 144.248 58.152C144.248 61.032 144.611 63.1013 145.336 64.36ZM156.408 66.664C155.107 68.456 152.803 69.352 149.496 69.352C146.189 69.352 143.875 68.456 142.552 66.664C141.229 64.8507 140.568 62.0133 140.568 58.152C140.568 54.2907 141.229 51.4213 142.552 49.544C143.896 47.6667 146.211 46.728 149.496 46.728C152.781 46.728 155.085 47.6667 156.408 49.544C157.731 51.4 158.392 54.2693 158.392 58.152C158.392 62.0347 157.731 64.872 156.408 66.664ZM165.6 69H162.112V53H165.568V53.992C167.125 53.096 168.597 52.648 169.984 52.648C172.117 52.648 173.568 53.256 174.336 54.472C175.125 55.6667 175.52 57.6507 175.52 60.424V69H172.064V60.52C172.064 58.792 171.872 57.5653 171.488 56.84C171.125 56.1147 170.368 55.752 169.216 55.752C168.128 55.752 167.083 55.9653 166.08 56.392L165.6 56.584V69ZM179.773 69V46.344H183.261V69H179.773ZM187.674 69V53H191.163V69H187.674ZM187.674 50.28V46.6H191.163V50.28H187.674ZM198.881 69H195.393V53H198.849V53.992C200.407 53.096 201.879 52.648 203.265 52.648C205.399 52.648 206.849 53.256 207.617 54.472C208.407 55.6667 208.801 57.6507 208.801 60.424V69H205.345V60.52C205.345 58.792 205.153 57.5653 204.769 56.84C204.407 56.1147 203.649 55.752 202.497 55.752C201.409 55.752 200.364 55.9653 199.361 56.392L198.881 56.584V69ZM224.254 66.12L225.15 66.024L225.214 68.616C222.782 69.1067 220.627 69.352 218.75 69.352C216.382 69.352 214.675 68.7013 213.63 67.4C212.606 66.0987 212.094 64.0187 212.094 61.16C212.094 55.4853 214.409 52.648 219.038 52.648C223.518 52.648 225.758 55.0907 225.758 59.976L225.534 62.472H215.614C215.635 63.7947 215.923 64.7653 216.478 65.384C217.033 66.0027 218.067 66.312 219.582 66.312C221.097 66.312 222.654 66.248 224.254 66.12ZM222.334 59.784C222.334 58.2053 222.078 57.1067 221.566 56.488C221.075 55.848 220.233 55.528 219.038 55.528C217.843 55.528 216.969 55.8587 216.414 56.52C215.881 57.1813 215.603 58.2693 215.582 59.784H222.334Z" fill="#CC2C49"/>
</svg>
