<svg width="45" height="44" viewBox="0 0 45 44" fill="none" xmlns="http://www.w3.org/2000/svg">
<g opacity="0.7">
<path d="M22.5 3.375C26.2432 3.375 29.9023 4.48498 33.0146 6.56457C36.1269 8.64416 38.5527 11.6 39.9852 15.0582C41.4176 18.5164 41.7924 22.3218 41.0621 25.993C40.3319 29.6643 38.5294 33.0365 35.8826 35.6833C33.2357 38.3302 29.8635 40.1327 26.1922 40.8629C22.521 41.5932 18.7157 41.2184 15.2574 39.7859C11.7992 38.3535 8.84339 35.9277 6.7638 32.8154C4.68421 29.7031 3.57423 26.0439 3.57423 22.3008C3.5795 17.283 5.57516 12.4722 9.12329 8.92406C12.6714 5.37593 17.4822 3.38027 22.5 3.375ZM22.5 0.785156C18.2446 0.785156 14.0848 2.04703 10.5466 4.41119C7.00834 6.77536 4.25063 10.1356 2.62216 14.0671C0.993697 17.9986 0.567616 22.3246 1.3978 26.4983C2.22799 30.6719 4.27715 34.5056 7.28617 37.5146C10.2952 40.5236 14.1289 42.5728 18.3025 43.403C22.4761 44.2332 26.8022 43.8071 30.7337 42.1786C34.6651 40.5502 38.0254 37.7924 40.3896 34.2542C42.7538 30.716 44.0156 26.5562 44.0156 22.3008C44.0156 16.5945 41.7488 11.1219 37.7139 7.08694C33.6789 3.05198 28.2063 0.785156 22.5 0.785156Z" fill="#9BFAB0"/>
<path d="M22.9303 3.375C23.763 3.375 25.2333 4.83328 26.4883 8.03273C27.9666 11.802 28.7794 16.8701 28.7794 22.3008C28.7794 27.7315 27.9825 32.7996 26.4883 36.5688C25.2333 39.7563 23.767 41.2266 22.9303 41.2266C22.0936 41.2266 20.6273 39.7683 19.3723 36.5688C17.898 32.7996 17.0812 27.7315 17.0812 22.3008C17.0812 16.8701 17.8781 11.802 19.3723 8.03273C20.6313 4.8293 22.1016 3.375 22.9303 3.375ZM22.9303 0.785156C18.2686 0.785156 14.4914 10.4194 14.4914 22.3008C14.4914 34.1822 18.2686 43.8164 22.9303 43.8164C27.592 43.8164 31.3692 34.1822 31.3692 22.3008C31.3692 10.4194 27.592 0.785156 22.9303 0.785156Z" fill="#9BFAB0"/>
<path d="M4.03638 29.0224H41.8242" stroke="#9BFAB0" stroke-width="4" stroke-miterlimit="10"/>
<path d="M4.03638 15.5752H41.8242" stroke="#9BFAB0" stroke-width="4" stroke-miterlimit="10"/>
</g>
</svg>
