<svg width="88" height="64" viewBox="0 0 88 64" fill="none" xmlns="http://www.w3.org/2000/svg">
<path fill-rule="evenodd" clip-rule="evenodd" d="M31.5362 0.478697L0.0596708 31.9552L31.5362 63.4318L44.0149 50.9531L56.4936 63.4318L68.9126 51.0127L87.9701 31.9552L68.9425 12.9275L68.9126 12.9574L56.4638 0.508521L44.0149 12.9574L31.5362 0.478697ZM41.4688 48.4069L38.2288 45.167L31.5362 51.8596L11.6318 31.9552L31.5362 12.0508L51.4406 31.9552L46.5611 36.8348L49.801 40.0747L57.9205 31.9552L31.5362 5.57098L18.3441 18.7631L5.15196 31.9552L31.5362 58.3395L41.4688 48.4069ZM52.3471 42.6208L56.4936 46.7673L68.9126 34.3483L71.3057 31.9552L68.9126 29.5622L56.4936 17.1431L52.3471 21.2896L63.0127 31.9552L52.3471 42.6208ZM41.4688 27.0757L38.2288 23.8357L30.1094 31.9552L56.4936 58.3395L68.9126 45.9204L82.8778 31.9552L68.9126 17.99L56.4936 5.57098L46.561 15.5035L49.801 18.7435L56.4936 12.0509L68.9126 24.4699L76.398 31.9552L68.9126 39.4406L56.4936 51.8596L36.5892 31.9552L41.4688 27.0757ZM35.6827 21.2896L31.5362 17.1431L16.7241 31.9552L31.5362 46.7673L35.6827 42.6208L25.0171 31.9552L35.6827 21.2896ZM44.0149 29.6218L41.6815 31.9552L44.0149 34.2886L46.3483 31.9552L44.0149 29.6218Z" fill="#9BFAB0"/>
</svg>
